<svg width="500px" height="525px" viewBox="0 0 500 500" xmlns="http://www.w3.org/2000/svg" preserveAspectRatio="xMidYMid meet">
    <defs>
      <clipPath id="formato">
        <path d="M46.75,0.807L46.75,0.807v227.992c0,208.528,203.24,270.395,203.24,270.395s203.26-61.866,203.26-270.395V0.807H46.75z"/>
      </clipPath>
    </defs>

    <g id="fundo" fill="#000000" x="0">
      <path d="M46.75,0.807L46.75,0.807v227.992c0,208.528,203.24,270.395,203.24,270.395s203.26-61.866,203.26-270.395V0.807H46.75z"/>
    </g>

    <g id="estampa1" fill="#ffcb00" x="0" clip-path="url(#formato)"><g><rect x="125" width="50" height="100%"/><rect x="225" width="50" height="100%"/><rect x="325" width="50" height="100%"/></g><rect id="estampa2" width="500" height="100" fill="#063780"/></g>

    <g id="borda" fill="none" stroke="#063780" stroke-width="10" x="0">
      <path d="M46.75,0.807L46.75,0.807v227.992c0,208.528,203.24,270.395,203.24,270.395s203.26-61.866,203.26-270.395V0.807H46.75z"/>
    </g>

    
  <g id="adorno" transform="scale(2.5) translate(70, 64)">
      <path id="svg_23" d="m53.684,52.196c3.539,-0.23 6.325,-3.162 6.325,-6.761v-7.174c0,-3.737 -3.028,-6.777 -6.76601,-6.777h-1.139v-4.28h2.46001v-0.005c5.085,0.226 9.145,4.425 9.145,9.569v10.155c0,5.15 -4.06,9.35 -9.145,9.581h-2.46001v-4.291v-0.017h1.58l0,0z" fill="#959484"/>
      <path id="svg_24" d="m53.921,15.439c-1.048,-1.788 -2.988,-2.985 -5.201,-2.985h-23.334c0,6.208 -4.524,11.336 -10.453,12.292v0.016c0.146,0.591 0.229,1.203 0.229,1.848c0,1.053 -0.217,2.04601 -0.593,2.953l0.531,0.119h36.001v28.49799v3.40501c0,2.803 -2.30099,5.10199 -5.102,5.10199h-29.651c-2.806,0 -5.106,-2.299 -5.106,-5.10199v-28.328c-1.088,0.602 -2.336,0.939 -3.668,0.939v31.001c0,3.33499 2.726,6.047 6.05,6.047h35.096c3.327,0 6.05,-2.71201 6.05,-6.047v-1.11101v-0.01099v-5.89601v-0.021v-28.47701v-5.881v-5.3c-0.001,-1.112 -0.30199,-2.164 -0.849,-3.061z" fill="#959484"/>
      <path id="svg_25" d="m54.769,65.19701v-1.11101v-0.01099v-5.89601v-0.021v-28.47701v-5.881v-5.3c0,-1.048 -0.27399,-2.035 -0.758,-2.895l-12.651,14.076h9.741v28.498v3.405c0,2.80301 -2.30099,5.102 -5.102,5.102h-29.651c-2.325,0 -4.279,-1.585 -4.892,-3.717l-3.587,3.99c0.76,2.47 3.047,4.285 5.754,4.285h35.096c3.328,0 6.05,-2.71201 6.05,-6.047z" fill="#959484"/>
      <path id="svg_26" d="m51.101,57.615v3.625c0,2.991 -2.30099,5.445 -5.102,5.445h-29.651c-2.806,0 -5.106,-2.45399 -5.106,-5.445v-30.217c1.479,-0.886 2.661,-2.266 3.327,-3.947l0.531,0.129h36.001v30.41l0,0z" fill="#F8CF0C"/>
      <path id="svg_27" d="m51.101,61.24v-3.625v-12.335c-0.569,0.075 -1.145,0.166 -1.708,0.28999c-6.868,1.50301 -11.933,3.679 -18.792,0.73c-5.569,-2.39 -11.101,-4.291 -17.203,-3.395c-0.599,0.092 -1.358,0.253 -2.156,0.494v17.84c0,2.991 2.301,5.445 5.106,5.445h29.651c2.801,0.00199 5.102,-2.452 5.102,-5.444z" fill="#E8A822"/>
      <path id="svg_28" d="m27.773,2.852c1.364,-1.294 3.18,-2.067 5.18999,-2.067c2.017,0 3.848,0.784 5.204,2.067h10.058c4.181,0 7.585,3.388 7.585,7.593c0,1.912 -0.714,3.657 -1.89,4.994c-1.048,-1.788 -2.988,-2.985 -5.201,-2.985h-23.333c0,6.208 -4.524,11.336 -10.453,12.292v0.016c0.146,0.591 0.229,1.203 0.229,1.848c0,1.053 -0.217,2.04601 -0.593,2.953c-0.666,1.574 -1.848,2.868 -3.327,3.695c-1.088,0.602 -2.336,0.939 -3.668,0.939c-4.186,0 -7.574,-3.399 -7.574,-7.58801v-14.156h0.473c0,-6.874 5.579,-12.453 12.464,-12.453c3.013,0 5.772,1.063 7.926,2.852h6.91l0,0z" fill="#FFFFFF"/>
      <path id="svg_29" d="m42.525,36.012c0,0.714 -0.58,1.294 -1.289,1.294c-0.714,0 -1.294,-0.57999 -1.294,-1.294c0,-0.709 0.58,-1.295 1.294,-1.295c0.709,0 1.289,0.586 1.289,1.295z" fill="#E8E8E8"/>
      <circle id="svg_30" r="1.292" cy="38.595" cx="27.905" fill="#E8E8E8"/>
      <path id="svg_31" d="m46.118,16.18h-27.661c-1.12,7.566 -6.38,9.425 -10.528,11.02h43.173v-0.516v-4.452c0,-1.116 -0.247,-2.169 -0.701,-3.065c-0.865,-1.79 -2.46,-2.987 -4.283,-2.987z" fill="#FFFFFF"/>
      <path id="svg_32" d="m25.386,12.453h23.333c2.213,0 4.153,1.197 5.201,2.985c0.87,-0.982 1.481,-2.207 1.745,-3.549c-2.379,-5.96 -11.253,-4 -16.766,-4.269c-3.222,-0.161 -6.589,-0.344 -9.749,-0.193c-1.432,0.07 -3.3,0.602 -4.776,0.397c-1.421,-0.193 -2.517,-1.262 -3.969,-1.402c-5.825,-0.558 -10.643,6.359 -13.333,10.741c-1.826,2.975 -2.658,6.916 -2.003,10.401c0.266,1.386 1.807,4.752 3.614,6.546c0.915,-0.134 1.782,-0.424 2.559,-0.854c1.479,-0.827 2.661,-2.121 3.327,-3.695c0.376,-0.907 0.593,-1.9 0.593,-2.953c0,-0.645 -0.083,-1.257 -0.229,-1.848v-0.016c5.929,-0.955 10.453,-6.083 10.453,-12.291z" fill="#E8E8E8"/>
  </g>

</svg>
